<?xml version="1.0" encoding="UTF-8" standalone="no"?>
<!-- Created with Inkscape (http://www.inkscape.org/) -->

<svg
   xmlns:dc="http://purl.org/dc/elements/1.1/"
   xmlns:cc="http://creativecommons.org/ns#"
   xmlns:rdf="http://www.w3.org/1999/02/22-rdf-syntax-ns#"
   xmlns:svg="http://www.w3.org/2000/svg"
   xmlns="http://www.w3.org/2000/svg"
   xmlns:sodipodi="http://sodipodi.sourceforge.net/DTD/sodipodi-0.dtd"
   xmlns:inkscape="http://www.inkscape.org/namespaces/inkscape"
   width="159.4375"
   height="155.15625"
   id="svg2"
   version="1.1"
   inkscape:version="0.48.3.1 r9886"
   sodipodi:docname="New document 1">
  <defs
     id="defs4" />
  <sodipodi:namedview
     id="base"
     pagecolor="#ffffff"
     bordercolor="#666666"
     borderopacity="1.0"
     inkscape:pageopacity="0.0"
     inkscape:pageshadow="2"
     inkscape:zoom="1.4"
     inkscape:cx="-15.739784"
     inkscape:cy="55.28528"
     inkscape:document-units="px"
     inkscape:current-layer="layer1"
     showgrid="false"
     fit-margin-top="0"
     fit-margin-left="0"
     fit-margin-right="0"
     fit-margin-bottom="0"
     inkscape:window-width="1159"
     inkscape:window-height="709"
     inkscape:window-x="0"
     inkscape:window-y="27"
     inkscape:window-maximized="0" />
  <metadata
     id="metadata7">
    <rdf:RDF>
      <cc:Work
         rdf:about="">
        <dc:format>image/svg+xml</dc:format>
        <dc:type
           rdf:resource="http://purl.org/dc/dcmitype/StillImage" />
        <dc:title></dc:title>
      </cc:Work>
    </rdf:RDF>
  </metadata>
  <g
     inkscape:label="Layer 1"
     inkscape:groupmode="layer"
     id="layer1"
     transform="translate(-331.71875,-495.5)">
    <rect
       style="fill:none;stroke:#000000;stroke-width:8;stroke-linecap:round;stroke-linejoin:round;stroke-miterlimit:4;stroke-opacity:1;stroke-dasharray:none;stroke-dashoffset:0"
       id="rect2996"
       width="151.42857"
       height="147.14285"
       x="335.71429"
       y="499.50504"
       rx="20"
       ry="20" />
    <rect
       style="fill:#000000;fill-opacity:1;stroke:none"
       id="rect2996-8"
       width="123.54118"
       height="120.04472"
       x="348.9437"
       y="513.05408"
       rx="16.316759"
       ry="16.316759" />
    <path
       style="fill:#ff7171;fill-opacity:1;stroke:#000000;stroke-width:1px;stroke-linecap:butt;stroke-linejoin:miter;stroke-opacity:1"
       d="m 405.71429,528.79075 c 0,0 -24.93078,-20.59158 -34.28572,-5 -19.28571,32.14286 34.28572,67.85715 34.28572,67.85715 0,0 56.00415,-44.38535 33.57143,-65.71429 -17.14511,-16.30151 -33.57143,2.85714 -33.57143,2.85714 z"
       id="path3802"
       inkscape:connector-curvature="0"
       sodipodi:nodetypes="cscsc" />
    <path
       style="fill:#ffffff;fill-opacity:1;stroke:#000000;stroke-width:1px;stroke-linecap:butt;stroke-linejoin:miter;stroke-opacity:1"
       d="m 471.78571,579.86219 c 0,0 -1.42857,-7.14286 -15.71428,-7.85714 -14.28572,-0.71429 -57.5,19.99999 -54.64286,28.57142 2.85715,8.57143 33.21429,-2.14285 33.21429,-2.14285 0,0 -23.44648,7.07297 -28.57144,5.35714 -7.80003,-2.61144 -3.57142,-7.49999 -3.57142,-7.49999 0,0 -35.71428,-17.14287 -42.14286,-5.00001 -5.38891,10.17904 47.85715,26.42857 54.28572,27.85714 6.42857,1.42858 35.71428,-15 35.71428,-15 l 21.07144,10.71429 m 0,0 0.35713,-35"
       id="path3804"
       inkscape:connector-curvature="0"
       sodipodi:nodetypes="csscscsscccc" />
  </g>
</svg>
